<svg width="24" height="18" viewBox="0 0 24 18" fill="none" xmlns="http://www.w3.org/2000/svg">
<path d="M13.0909 14.6813C13.8909 14.2875 14.6955 13.9922 15.5045 13.7953C16.3136 13.5984 17.1455 13.5 18 13.5C18.6545 13.5 19.2955 13.5563 19.9227 13.6688C20.55 13.7812 21.1818 13.95 21.8182 14.175V3.0375C21.2182 2.775 20.5955 2.57812 19.95 2.44687C19.3045 2.31562 18.6545 2.25 18 2.25C17.1455 2.25 16.3 2.3625 15.4636 2.5875C14.6273 2.8125 13.8364 3.15 13.0909 3.6V14.6813ZM12 18C11.1273 17.2875 10.1818 16.7344 9.16364 16.3406C8.14546 15.9469 7.09091 15.75 6 15.75C5.23636 15.75 4.48636 15.8531 3.75 16.0594C3.01364 16.2656 2.30909 16.5563 1.63636 16.9313C1.25455 17.1375 0.886364 17.1281 0.531818 16.9031C0.177273 16.6781 0 16.35 0 15.9188V2.3625C0 2.15625 0.05 1.95938 0.15 1.77188C0.25 1.58438 0.4 1.44375 0.6 1.35C1.45455 0.91875 2.33182 0.585938 3.23182 0.351562C4.13182 0.117188 5.05455 0 6 0C7.05455 0 8.08636 0.140625 9.09546 0.421875C10.1045 0.703125 11.0727 1.125 12 1.6875C12.9273 1.125 13.8955 0.703125 14.9045 0.421875C15.9136 0.140625 16.9455 0 18 0C18.9455 0 19.8682 0.117188 20.7682 0.351562C21.6682 0.585938 22.5455 0.91875 23.4 1.35C23.6 1.44375 23.75 1.58438 23.85 1.77188C23.95 1.95938 24 2.15625 24 2.3625V15.9188C24 16.35 23.8227 16.6781 23.4682 16.9031C23.1136 17.1281 22.7455 17.1375 22.3636 16.9313C21.6909 16.5563 20.9864 16.2656 20.25 16.0594C19.5136 15.8531 18.7636 15.75 18 15.75C16.9091 15.75 15.8545 15.9469 14.8364 16.3406C13.8182 16.7344 12.8727 17.2875 12 18Z" fill="white"/>
</svg>
