<svg width="25" height="25" viewBox="0 0 25 25" fill="none" xmlns="http://www.w3.org/2000/svg">
<mask id="mask0_294_3296" style="mask-type:alpha" maskUnits="userSpaceOnUse" x="0" y="0" width="25" height="25">
<rect x="0.5" y="0.5" width="24" height="24" fill="#D9D9D9"/>
</mask>
<g mask="url(#mask0_294_3296)">
<path d="M13.5 17.55C14.2333 17.2 14.9708 16.9375 15.7125 16.7625C16.4542 16.5875 17.2167 16.5 18 16.5C18.6 16.5 19.1875 16.55 19.7625 16.65C20.3375 16.75 20.9167 16.9 21.5 17.1V7.2C20.95 6.96667 20.3792 6.79167 19.7875 6.675C19.1958 6.55833 18.6 6.5 18 6.5C17.2167 6.5 16.4417 6.6 15.675 6.8C14.9083 7 14.1833 7.3 13.5 7.7V17.55ZM12.5 20.5C11.7 19.8667 10.8333 19.375 9.9 19.025C8.96667 18.675 8 18.5 7 18.5C6.3 18.5 5.6125 18.5917 4.9375 18.775C4.2625 18.9583 3.61667 19.2167 3 19.55C2.65 19.7333 2.3125 19.725 1.9875 19.525C1.6625 19.325 1.5 19.0333 1.5 18.65V6.6C1.5 6.41667 1.54583 6.24167 1.6375 6.075C1.72917 5.90833 1.86667 5.78333 2.05 5.7C2.83333 5.31667 3.6375 5.02083 4.4625 4.8125C5.2875 4.60417 6.13333 4.5 7 4.5C7.96667 4.5 8.9125 4.625 9.8375 4.875C10.7625 5.125 11.65 5.5 12.5 6C13.35 5.5 14.2375 5.125 15.1625 4.875C16.0875 4.625 17.0333 4.5 18 4.5C18.8667 4.5 19.7125 4.60417 20.5375 4.8125C21.3625 5.02083 22.1667 5.31667 22.95 5.7C23.1333 5.78333 23.2708 5.90833 23.3625 6.075C23.4542 6.24167 23.5 6.41667 23.5 6.6V18.65C23.5 19.0333 23.3375 19.325 23.0125 19.525C22.6875 19.725 22.35 19.7333 22 19.55C21.3833 19.2167 20.7375 18.9583 20.0625 18.775C19.3875 18.5917 18.7 18.5 18 18.5C17 18.5 16.0333 18.675 15.1 19.025C14.1667 19.375 13.3 19.8667 12.5 20.5Z" fill="#fff"/>
</g>
</svg>
