<svg width="375" height="44" viewBox="0 0 375 44" fill="none" xmlns="http://www.w3.org/2000/svg">
<path opacity="0.35" d="M336.5 20C336.5 18.8034 337.47 17.8334 338.667 17.8334H355.333C356.53 17.8334 357.5 18.8034 357.5 20V26C357.5 27.1967 356.53 28.1667 355.333 28.1667H338.667C337.47 28.1667 336.5 27.1967 336.5 26V20Z" stroke="#444444"/>
<path opacity="0.4" d="M359 21V25C359.805 24.6613 360.328 23.8732 360.328 23C360.328 22.1269 359.805 21.3388 359 21Z" fill="#444444"/>
<path d="M338 20.6667C338 19.9303 338.597 19.3334 339.333 19.3334H354.667C355.403 19.3334 356 19.9303 356 20.6667V25.3334C356 26.0698 355.403 26.6667 354.667 26.6667H339.333C338.597 26.6667 338 26.0698 338 25.3334V20.6667Z" fill="#444444"/>
<path fill-rule="evenodd" clip-rule="evenodd" d="M323.331 19.608C325.547 19.6081 327.678 20.4596 329.284 21.9863C329.405 22.1042 329.598 22.1027 329.717 21.983L330.873 20.8163C330.934 20.7556 330.967 20.6734 330.967 20.5878C330.966 20.5022 330.932 20.4204 330.871 20.3603C326.656 16.3208 320.006 16.3208 315.791 20.3603C315.73 20.4203 315.695 20.5021 315.694 20.5877C315.694 20.6733 315.727 20.7556 315.788 20.8163L316.944 21.983C317.063 22.1029 317.256 22.1044 317.377 21.9863C318.983 20.4595 321.115 19.608 323.331 19.608ZM323.331 23.4037C324.548 23.4036 325.722 23.8561 326.625 24.6733C326.747 24.7893 326.939 24.7868 327.058 24.6677L328.213 23.501C328.274 23.4398 328.307 23.3568 328.307 23.2705C328.306 23.1843 328.27 23.102 328.208 23.042C325.46 20.4856 321.204 20.4856 318.456 23.042C318.394 23.102 318.358 23.1843 318.358 23.2706C318.357 23.3569 318.391 23.4399 318.452 23.501L319.606 24.6677C319.725 24.7868 319.917 24.7893 320.039 24.6733C320.941 23.8567 322.114 23.4042 323.331 23.4037ZM325.644 25.9575C325.646 26.044 325.612 26.1274 325.55 26.188L323.553 28.2037C323.494 28.2629 323.414 28.2963 323.331 28.2963C323.248 28.2963 323.168 28.2629 323.109 28.2037L321.112 26.188C321.05 26.1274 321.016 26.0439 321.018 25.9574C321.02 25.8709 321.057 25.789 321.121 25.731C322.397 24.6521 324.265 24.6521 325.541 25.731C325.605 25.7891 325.642 25.871 325.644 25.9575Z" fill="#444444"/>
<path fill-rule="evenodd" clip-rule="evenodd" d="M309.667 17.6666H308.667C308.115 17.6666 307.667 18.1143 307.667 18.6666V27.3333C307.667 27.8856 308.115 28.3333 308.667 28.3333H309.667C310.219 28.3333 310.667 27.8856 310.667 27.3333V18.6666C310.667 18.1143 310.219 17.6666 309.667 17.6666ZM304 20H305C305.553 20 306 20.4477 306 21V27.3333C306 27.8856 305.553 28.3333 305 28.3333H304C303.448 28.3333 303 27.8856 303 27.3333V21C303 20.4477 303.448 20 304 20ZM300.334 22.3333H299.334C298.781 22.3333 298.334 22.781 298.334 23.3333V27.3333C298.334 27.8856 298.781 28.3333 299.334 28.3333H300.334C300.886 28.3333 301.334 27.8856 301.334 27.3333V23.3333C301.334 22.781 300.886 22.3333 300.334 22.3333ZM295.667 24.3333H294.667C294.115 24.3333 293.667 24.781 293.667 25.3333V27.3333C293.667 27.8856 294.115 28.3333 294.667 28.3333H295.667C296.219 28.3333 296.667 27.8856 296.667 27.3333V25.3333C296.667 24.781 296.219 24.3333 295.667 24.3333Z" fill="#444444"/>
<path d="M37.3203 28.2563C40.0083 28.2563 41.605 26.1543 41.605 22.5947C41.605 21.2544 41.3486 20.1265 40.8579 19.2549C40.1475 17.8999 38.9243 17.1675 37.3789 17.1675C35.0791 17.1675 33.4531 18.7129 33.4531 20.8809C33.4531 22.917 34.918 24.3965 36.9321 24.3965C38.1699 24.3965 39.1733 23.8179 39.6714 22.8145H39.6934C39.6934 22.8145 39.7227 22.8145 39.73 22.8145C39.7446 22.8145 39.7959 22.8145 39.7959 22.8145C39.7959 25.2314 38.8804 26.6743 37.335 26.6743C36.4268 26.6743 35.7236 26.1763 35.4819 25.3779H33.5996C33.9146 27.1138 35.3867 28.2563 37.3203 28.2563ZM37.3862 22.895C36.1704 22.895 35.3062 22.0308 35.3062 20.8223C35.3062 19.6431 36.2144 18.7422 37.3936 18.7422C38.5728 18.7422 39.481 19.6577 39.481 20.8516C39.481 22.0308 38.5947 22.895 37.3862 22.895Z" fill="#444444"/>
<path d="M44.6961 28.1538C45.3919 28.1538 45.868 27.6558 45.868 26.9966C45.868 26.3301 45.3919 25.8394 44.6961 25.8394C44.0076 25.8394 43.5242 26.3301 43.5242 26.9966C43.5242 27.6558 44.0076 28.1538 44.6961 28.1538ZM44.6961 22.6606C45.3919 22.6606 45.868 22.1699 45.868 21.5107C45.868 20.8442 45.3919 20.3535 44.6961 20.3535C44.0076 20.3535 43.5242 20.8442 43.5242 21.5107C43.5242 22.1699 44.0076 22.6606 44.6961 22.6606Z" fill="#444444"/>
<path d="M52.7237 28H54.5328V26.0298H55.961V24.4331H54.5328V17.4312H51.8668C49.9991 20.2437 48.5123 22.5947 47.5602 24.3452V26.0298H52.7237V28ZM49.3106 24.3672C50.5411 22.1992 51.6397 20.4634 52.6505 18.9692H52.753V24.4771H49.3106V24.3672Z" fill="#444444"/>
<path d="M59.9896 28H61.8793V17.4312H59.997L57.2357 19.3647V21.1812L59.8651 19.3354H59.9896V28Z" fill="#444444"/>
</svg>
